# xmcd
#
# Track frame offsets:
#	150
#	57467
#	105625
#	135193
#	164923
#	212025
#
# Disc length: 3300 seconds
#
# Revision: 1
# Processed by: cddbd v1.5.2PL0 Copyright (c) Steve Scherf et al.
# Submitted via: audiograbber 1.83.01
#
DISCID=540ce206
DTITLE=Grateful Dead - 82-09-11 West Palm Beach Auditorium, West Palm Beach FL
DYEAR=1900
DGENRE=
TTITLE0=Scarlet Begonias
TTITLE1=Fire On The Mountain
TTITLE2=Lost Sailor
TTITLE3=Saint Of Circumstance
TTITLE4=Terrapin Station
TTITLE5=Drums
EXTD=
EXTT0=
EXTT1=
EXTT2=
EXTT3=
EXTT4=
EXTT5=
PLAYORDER=
